<?xml version="1.0" encoding="UTF-8" standalone="no"?>
<!DOCTYPE svg PUBLIC "-//W3C//DTD SVG 1.1//EN"
 "http://www.w3.org/Graphics/SVG/1.1/DTD/svg11.dtd">
<!-- Generated by graphviz version 8.1.0 (20230707.0739)
 -->
<!-- Title: snakemake_dag Pages: 1 -->
<svg width="228pt" height="116pt"
 viewBox="0.00 0.00 228.12 116.00" xmlns="http://www.w3.org/2000/svg" xmlns:xlink="http://www.w3.org/1999/xlink">
<g id="graph0" class="graph" transform="scale(1 1) rotate(0) translate(4 112)">
<title>snakemake_dag</title>
<polygon fill="white" stroke="none" points="-4,4 -4,-112 224.12,-112 224.12,4 -4,4"/>
<!-- 0 -->
<g id="node1" class="node">
<title>0</title>
<path fill="none" stroke="#56d8d8" stroke-width="2" d="M111.25,-36C111.25,-36 81.25,-36 81.25,-36 75.25,-36 69.25,-30 69.25,-24 69.25,-24 69.25,-12 69.25,-12 69.25,-6 75.25,0 81.25,0 81.25,0 111.25,0 111.25,0 117.25,0 123.25,-6 123.25,-12 123.25,-12 123.25,-24 123.25,-24 123.25,-30 117.25,-36 111.25,-36"/>
<text text-anchor="middle" x="96.25" y="-15.62" font-family="sans" font-size="10.00">dats</text>
</g>
<!-- 1 -->
<g id="node2" class="node">
<title>1</title>
<path fill="none" stroke="#59d856" stroke-width="2" stroke-dasharray="5,2" d="M62.5,-108C62.5,-108 12,-108 12,-108 6,-108 0,-102 0,-96 0,-96 0,-84 0,-84 0,-78 6,-72 12,-72 12,-72 62.5,-72 62.5,-72 68.5,-72 74.5,-78 74.5,-84 74.5,-84 74.5,-96 74.5,-96 74.5,-102 68.5,-108 62.5,-108"/>
<text text-anchor="middle" x="37.25" y="-87.62" font-family="sans" font-size="10.00">count_words</text>
</g>
<!-- 1&#45;&gt;0 -->
<g id="edge1" class="edge">
<title>1&#45;&gt;0</title>
<path fill="none" stroke="grey" stroke-width="2" d="M52.14,-71.34C58.45,-63.85 65.95,-54.95 72.96,-46.63"/>
<polygon fill="grey" stroke="grey" stroke-width="2" points="76.39,-48.8 80.16,-38.9 71.04,-44.29 76.39,-48.8"/>
</g>
<!-- 2 -->
<g id="node3" class="node">
<title>2</title>
<path fill="none" stroke="#d6d856" stroke-width="2" d="M208.12,-108C208.12,-108 104.38,-108 104.38,-108 98.38,-108 92.38,-102 92.38,-96 92.38,-96 92.38,-84 92.38,-84 92.38,-78 98.38,-72 104.38,-72 104.38,-72 208.12,-72 208.12,-72 214.12,-72 220.12,-78 220.12,-84 220.12,-84 220.12,-96 220.12,-96 220.12,-102 214.12,-108 208.12,-108"/>
<text text-anchor="middle" x="156.25" y="-87.62" font-family="sans" font-size="10.00">count_words_moby_dick</text>
</g>
<!-- 2&#45;&gt;0 -->
<g id="edge2" class="edge">
<title>2&#45;&gt;0</title>
<path fill="none" stroke="grey" stroke-width="2" d="M141.11,-71.34C134.69,-63.85 127.06,-54.95 119.93,-46.63"/>
<polygon fill="grey" stroke="grey" stroke-width="2" points="121.76,-44.22 112.59,-38.9 116.44,-48.77 121.76,-44.22"/>
</g>
</g>
</svg>
